<svg xmlns="http://www.w3.org/2000/svg" xml:space="preserve" data-id="lg_odIW4EYzefSriz78mm" data-version="1" viewBox="713 -0.5 574 209"><g data-padding="20"><g transform="translate(10 3.63)scale(.9651)"><path d="M971.922 66.3q0-3.45-1.45-5.86t-5.21-4.36q-3.76-1.96-10.68-3.96-5.41-1.56-9.75-3.54t-7.44-4.53q-3.11-2.56-4.77-5.87-1.65-3.3-1.65-7.57 0-5.71 3.08-10.2 3.09-4.48 8.65-7.06 5.56-2.59 13.03-2.59 8.27 0 14.04 3.14 5.76 3.13 8.77 8.17t3.01 10.75h-9.78q0-4.11-1.73-7.32t-5.28-5.04q-3.56-1.83-9.03-1.83-5.11 0-8.44 1.56-3.34 1.55-4.94 4.21-1.61 2.66-1.61 6.06 0 3.06 1.76 5.44 1.75 2.38 5.51 4.29 3.76 1.9 9.73 3.61 8.27 2.3 13.58 5.36 5.32 3.06 7.85 7.22t2.53 9.82q0 5.92-3.16 10.33t-8.87 6.82q-5.72 2.4-13.44 2.4-5.06 0-9.95-1.4-4.88-1.4-8.87-4.21-3.98-2.81-6.36-6.94-2.39-4.14-2.39-9.6h9.73q0 3.76 1.45 6.46 1.46 2.71 3.96 4.47 2.51 1.75 5.72 2.58 3.2.82 6.71.82 5.07 0 8.55-1.42 3.48-1.43 5.31-4.04t1.83-6.17m32.55-54.53v72.98h-9.73V11.77Zm20.59 0h9.47l23.81 59.65 23.81-59.65h9.48l-29.63 72.98h-7.37Zm-3.06 0h8.32l1.35 44.46v28.52h-9.67Zm64.36 0h8.32v72.98h-9.67V56.23Zm52.28 44.36h-19.45v-7.82h19.45q5.67 0 9.15-1.83 3.49-1.83 5.11-5.04 1.63-3.21 1.63-7.32 0-3.76-1.63-7.06-1.62-3.31-5.11-5.37-3.48-2.05-9.15-2.05h-17.24v65.11h-9.72V11.77h26.96q8.27 0 13.99 2.85 5.71 2.86 8.67 7.87 2.96 5.02 2.96 11.53 0 7.02-2.96 11.98-2.96 4.97-8.67 7.55-5.72 2.58-13.99 2.58m82.17 20.8v7.82h-36.49v-7.82Zm-34.59-65.16v72.98h-9.72V11.77Zm91.93 65.16v7.82h-38.55v-7.82Zm-36.65-65.16v72.98h-9.72V11.77Zm31.53 31.38v7.82h-33.43v-7.82Zm4.61-31.38v7.87h-38.04v-7.87Zm-300.55 138.45h9.72q-.75 6.87-3.96 12.36-3.21 5.48-9.07 8.64-5.87 3.16-14.69 3.16-8.57 0-14.99-4.19-6.41-4.18-9.97-11.8t-3.56-17.79v-7.37q0-10.23 3.58-17.82 3.59-7.6 10.2-11.81 6.62-4.21 15.64-4.21 8.27 0 13.99 3.08 5.71 3.09 8.9 8.6 3.18 5.51 3.93 12.73h-9.72q-1.11-7.67-4.89-12.1-3.79-4.44-12.21-4.44-6.46 0-10.82 3.23-4.37 3.24-6.6 9.05-2.23 5.82-2.23 13.59v7.47q0 7.16 2.01 13.05 2 5.89 6.14 9.4 4.13 3.51 10.6 3.51 6.17 0 9.8-1.95 3.63-1.96 5.51-5.62t2.69-8.77m22.8-49.83h24.16q8.23 0 13.94 2.51t8.7 7.39q2.98 4.89 2.98 12.01 0 5.01-2.03 9.12t-5.84 7.02-9.07 4.31l-2.71 1.05h-22.66l-.1-7.82h17.05q5.21 0 8.67-1.85 3.46-1.86 5.19-4.96 1.72-3.11 1.72-6.87 0-6.37-3.75-10.2-3.76-3.84-12.09-3.84h-14.43v65.12h-9.73Zm42.56 72.99-17.69-33.09h10.17l17.95 32.49v.6Zm23.71-72.99h9.47l23.81 59.65 23.81-59.65h9.48l-29.63 72.99h-7.36Zm-3.06 0h8.32l1.36 44.47v28.52h-9.68Zm64.37 0h8.32v72.99h-9.68v-28.52Z"/><rect width="387.046" height="208.417" x="425.929" y="-403.988" fill="none" rx="0" ry="0" transform="translate(499.18 403.78)"/><path d="M803.66 112.148q-.985-.43-1.908-.972a17.22 17.22 0 0 1-7.28-8.18 16.97 16.97 0 0 1 0-13.357 17.22 17.22 0 0 1 9.187-9.151 4.92 4.92 0 0 0-3.813-9.065 26.999 26.999 0 0 0 0 49.79 4.92 4.92 0 1 0 3.813-9.065m25.891-34.956a27.1 27.1 0 0 0-8.61-5.78 4.92 4.92 0 0 0-3.825 9.064q.984.418 1.907.96a17.22 17.22 0 0 1 8.634 14.858 16.97 16.97 0 0 1-5.043 12.14 17.2 17.2 0 0 1-5.498 3.69 4.92 4.92 0 0 0 3.813 9.065 27.01 27.01 0 0 0 8.61-43.997"/><path d="M867.767 108.74V83.87a18.352 18.352 0 0 0 8.118-30.75 18.45 18.45 0 0 0-13.038-5.375 18.35 18.35 0 0 0-12.94 5.29l-21.66-12.46q.565-2.215.59-4.589c0-4.92-1.919-9.533-5.412-13.014a18.45 18.45 0 0 0-13.038-5.387 18.37 18.37 0 0 0-13.038 5.387 18.2 18.2 0 0 0-4.822 17.602l-21.66 12.46a18.45 18.45 0 0 0-12.94-5.29c-4.92 0-9.557 1.907-13.037 5.388a18.2 18.2 0 0 0-5.412 13.013 18.33 18.33 0 0 0 13.53 17.725v24.87a18.352 18.352 0 0 0-8.119 30.75 18.45 18.45 0 0 0 13.04 5.375c4.882 0 9.47-1.882 12.94-5.289l21.66 12.46q-.592 2.214-.604 4.588c0 4.92 1.93 9.545 5.412 13.026a18.45 18.45 0 0 0 13.05 5.375 18.45 18.45 0 0 0 13.05-5.387 18.2 18.2 0 0 0 4.822-17.602l21.648-12.46a18.45 18.45 0 0 0 12.952 5.29c4.92 0 9.557-1.907 13.038-5.376 3.48-3.468 5.412-8.105 5.412-13.024s-1.919-9.545-5.412-13.014a18.45 18.45 0 0 0-8.118-4.71m1.168 23.775a8.856 8.856 0 0 1-12.189 0 8.487 8.487 0 0 1 0-12.09 8.6 8.6 0 0 1 6.1-2.522 8.61 8.61 0 0 1 8.61 8.56 8.45 8.45 0 0 1-2.52 6.052m-64.65 30.16a8.487 8.487 0 0 1 0-12.091 8.6 8.6 0 0 1 6.101-2.522 8.61 8.61 0 0 1 8.61 8.56 8.6 8.6 0 0 1-2.509 6.053 8.856 8.856 0 0 1-12.2 0m6.1-24.453a18.37 18.37 0 0 0-12.94 5.29l-21.66-12.46q.59-2.214.602-4.588a18.33 18.33 0 0 0-13.53-17.725V83.883c9.68-2.657 15.432-12.595 12.915-22.312l21.673-12.46A18.45 18.45 0 0 0 810.4 54.4a18.37 18.37 0 0 0 12.94-5.29L845 61.57q-.59 2.215-.604 4.589a18.33 18.33 0 0 0 13.53 17.724v24.87c-9.68 2.659-15.436 12.593-12.927 22.313l-21.66 12.46a18.45 18.45 0 0 0-12.94-5.29m-58.548-5.72a8.487 8.487 0 0 1 0-12.077 8.61 8.61 0 0 1 14.711 6.05 8.6 8.6 0 0 1-2.52 6.028 8.856 8.856 0 0 1-12.203 0m-2.522-66.358a8.61 8.61 0 0 1 17.22 0 8.46 8.46 0 0 1-2.509 6.038 8.856 8.856 0 0 1-12.2 0 8.6 8.6 0 0 1-2.51-6.04m61.07-38.732a8.61 8.61 0 0 1 8.61 8.56 8.6 8.6 0 0 1-2.51 6.04 8.856 8.856 0 0 1-12.2 0 8.487 8.487 0 0 1 0-12.078 8.6 8.6 0 0 1 6.1-2.521m52.46 30.16a8.61 8.61 0 0 1 8.61 8.56 8.6 8.6 0 0 1-2.51 6.04 8.856 8.856 0 0 1-12.202 0 8.487 8.487 0 0 1 0-12.08 8.6 8.6 0 0 1 6.1-2.52"/></g><path fill="transparent" stroke="transparent" d="M713.5 0h573v208h-573z"/></g></svg>